<svg width="40" height="39" viewBox="0 0 40 39" fill="none" xmlns="http://www.w3.org/2000/svg">
<path fill-rule="evenodd" clip-rule="evenodd" d="M18.3994 18.0377V5.29412C18.3994 4.41436 19.1125 3.70117 19.9923 3.70117C20.8721 3.70117 21.5853 4.41436 21.5853 5.29412V18.0377H34.3288C35.2086 18.0377 35.9218 18.7509 35.9218 19.6307C35.9218 20.5104 35.2086 21.2236 34.3288 21.2236H21.5853V33.9672C21.5853 34.847 20.8721 35.5601 19.9923 35.5601C19.1125 35.5601 18.3994 34.847 18.3994 33.9672V21.2236H5.65577C4.77601 21.2236 4.06282 20.5104 4.06282 19.6307C4.06282 18.7509 4.77601 18.0377 5.65577 18.0377H18.3994Z" fill="white"/>
</svg>
