<svg width="47" height="41" viewBox="0 0 47 41" fill="none" xmlns="http://www.w3.org/2000/svg">
<path d="M21.4279 28.2627L7.81079 14.6345C6.20376 13.031 7.50982 10.5127 9.94875 10.5127H37.1829C37.7288 10.5123 38.2632 10.6496 38.7221 10.9083C39.1811 11.167 39.5452 11.536 39.7708 11.9712C39.9964 12.4064 40.0739 12.8893 39.9941 13.3621C39.9143 13.8349 39.6806 14.2775 39.3209 14.637L25.7038 28.2602C25.4373 28.5272 25.1086 28.7412 24.7399 28.8879C24.3711 29.0345 23.9708 29.1104 23.5658 29.1104C23.1608 29.1104 22.7605 29.0345 22.3918 28.8879C22.023 28.7412 21.6944 28.5272 21.4279 28.2602V28.2627Z" fill="#353535"/>
</svg>
