<svg width="39" height="39" viewBox="0 0 39 39" fill="none" xmlns="http://www.w3.org/2000/svg">
<path fill-rule="evenodd" clip-rule="evenodd" d="M17.9301 17.5494V4.80584C17.9301 3.92608 18.6433 3.21289 19.5231 3.21289C20.4028 3.21289 21.116 3.92608 21.116 4.80584V17.5494H33.8596C34.7394 17.5494 35.4526 18.2626 35.4526 19.1424C35.4526 20.0221 34.7394 20.7353 33.8596 20.7353H21.116V33.4789C21.116 34.3587 20.4028 35.0719 19.5231 35.0719C18.6433 35.0719 17.9301 34.3587 17.9301 33.4789V20.7353H5.18654C4.30678 20.7353 3.59359 20.0221 3.59359 19.1424C3.59359 18.2626 4.30678 17.5494 5.18654 17.5494H17.9301Z" fill="#313144"/>
</svg>
